<svg width="340" height="70" viewBox="0 0 340 70" fill="none" xmlns="http://www.w3.org/2000/svg">
<mask id="mask0_2099_6114" style="mask-type:luminance" maskUnits="userSpaceOnUse" x="0" y="0" width="340" height="70">
<path d="M340 0H0V69.7895H340V0Z" fill="white"/>
</mask>
<g mask="url(#mask0_2099_6114)">
<path d="M74.883 47.5836H66.041C66.227 62.7914 77.21 69.7895 91.731 69.7895C103.645 69.7895 115.093 63.9107 115.093 50.2894C115.093 36.2008 103.738 33.7748 92.661 30.6031C83.912 28.0834 77.396 25.4713 77.396 18.6606C77.396 10.5433 83.54 7.464 90.893 7.464C99.642 7.464 103.831 11.6626 105.041 20.0598H113.977C112.952 6.7182 104.204 0 90.893 0C78.886 0 68.274 6.4384 68.554 19.314C68.833 31.9097 80.003 35.1752 90.986 38.4406C99.363 40.959 106.251 42.3582 106.251 50.5692C106.251 58.6865 99.55 62.3255 91.731 62.3255C82.05 62.3255 75.255 57.5672 74.883 47.5836Z" fill="black"/>
<path d="M151.649 30.6395V9.16625H165.332C173.058 9.16625 177.712 11.8263 177.712 19.2903C177.712 26.7543 173.058 30.6395 165.332 30.6395H151.649ZM151.649 60.6229V38.1012H167.939C175.291 38.1012 180.504 42.1496 180.504 49.2401C180.504 56.4243 175.291 60.6229 167.939 60.6229H151.649ZM142.801 68.0869H166.449C180.598 68.0869 189.346 61.6497 189.346 49.2401C189.346 40.5631 183.669 35.4313 176.036 34.1259V34.0322C182.645 31.0466 186.554 26.2884 186.554 19.2903C186.554 8.09495 178.271 1.70215 167.008 1.70215H142.801V68.0869Z" fill="black"/>
<path d="M0 1.70312V68.0867H8.8423V38.1057H40.8626V68.0867H49.7049V30.6405H8.8423V1.70312H0Z" fill="black"/>
<path d="M58.5318 1.7041H49.7051V30.6402H58.5318V1.7041Z" fill="black"/>
<path d="M208.196 30.6396H199.369V68.087H208.196V30.6396Z" fill="black"/>
<path d="M217.022 1.70312H208.195V30.6393H217.022V1.70312Z" fill="black"/>
<path d="M132.417 1.7041H123.59V30.6402H132.417V1.7041Z" fill="black"/>
<path d="M287.791 63.7509H288.857C288.835 63.4599 288.754 63.1764 288.62 62.9169C288.487 62.6574 288.303 62.4271 288.08 62.2394C287.857 62.0518 287.598 61.9105 287.32 61.8238C287.042 61.7371 286.749 61.7067 286.459 61.7345C285.367 61.7345 284.169 62.3938 284.169 63.5588C284.169 64.5195 284.995 65.084 285.919 65.3122L286.784 65.5283C287.371 65.6737 287.887 65.8538 287.887 66.3822C287.887 67.1028 287.155 67.319 286.543 67.319C285.703 67.319 285.211 67.0067 285.067 66.2141H283.989C284.021 66.5124 284.112 66.8013 284.257 67.0643C284.401 67.3273 284.596 67.5591 284.83 67.7465C285.064 67.9339 285.333 68.0731 285.621 68.1562C285.909 68.2392 286.21 68.2645 286.508 68.2305C287.587 68.2305 288.965 67.6312 288.965 66.3102C288.965 65.2761 288.019 64.8318 287.084 64.6036L286.267 64.3994C285.727 64.2673 285.247 63.9911 285.247 63.5107C285.247 62.9823 285.835 62.646 286.423 62.646C286.585 62.6283 286.749 62.6428 286.906 62.6888C287.063 62.7348 287.209 62.8113 287.336 62.9139C287.463 63.0166 287.569 63.1433 287.647 63.287C287.725 63.4306 287.774 63.5883 287.791 63.7509ZM281.787 66.3462V62.7661H282.974V61.8786H281.787V59.945L280.732 60.4254V61.8786H279.809V62.7661H280.732V66.4183C280.714 66.6484 280.746 66.8798 280.828 67.0956C280.91 67.3115 281.039 67.5064 281.205 67.6662C281.372 67.8259 281.572 67.9466 281.79 68.0192C282.009 68.0919 282.242 68.1149 282.47 68.0864H283.01V67.1989H282.578C282.468 67.2052 282.357 67.1869 282.254 67.1454C282.151 67.1039 282.058 67.0402 281.982 66.9588C281.907 66.8774 281.85 66.7803 281.816 66.6744C281.782 66.5685 281.772 66.4564 281.787 66.3462ZM277.053 61.8786H275.974V68.0864H277.053V65.156C277.053 63.3546 277.784 63.0303 278.504 62.9222C278.635 62.9029 278.767 62.8909 278.9 62.8862V61.8546C278.491 61.8115 278.08 61.9159 277.742 62.1491C277.403 62.3822 277.159 62.7288 277.053 63.1264V61.8786ZM269.376 64.6408L270.803 60.5323H270.839L272.278 64.6408H269.376ZM268.093 68.0864L269.04 65.5764H272.613L273.549 68.0864H274.724L271.534 59.5127H270.108L266.917 68.0864H268.093ZM257.788 64.9639C257.788 63.6188 258.484 62.646 259.757 62.646C261.1 62.646 261.724 63.7509 261.724 64.9639C261.724 66.1901 261.1 67.307 259.757 67.307C258.448 67.307 257.788 66.3102 257.788 64.9639ZM259.541 61.7345C257.788 61.7345 256.71 63.0423 256.71 64.9639C256.71 66.8866 257.788 68.2305 259.541 68.2305C259.993 68.2397 260.438 68.1132 260.819 67.8674C261.199 67.6215 261.498 67.2674 261.676 66.8506H261.688V68.0864H262.766V59.5127H261.688V63.1384H261.676C261.501 62.717 261.205 62.3578 260.824 62.1075C260.443 61.8571 259.996 61.7272 259.541 61.7345ZM250.115 68.0864H251.194V65.0359C251.194 63.4146 251.997 62.646 252.91 62.646C253.75 62.646 254.218 63.0784 254.218 64.1712V68.0864H255.296V64.0632C255.334 63.7556 255.303 63.4433 255.204 63.1494C255.106 62.8554 254.944 62.587 254.729 62.3638C254.514 62.1407 254.253 61.9684 253.963 61.8595C253.673 61.7506 253.363 61.7079 253.054 61.7345C252.648 61.7373 252.252 61.8639 251.92 62.0976C251.588 62.3313 251.334 62.6608 251.194 63.0423V61.8786H250.115V68.0864ZM244.101 66.3942C244.101 65.7697 244.641 65.5043 245.542 65.3482C246.885 65.108 247.149 64.7477 247.269 64.3394L247.281 65.2041C247.32 65.4731 247.3 65.7473 247.223 66.0079C247.146 66.2684 247.013 66.5092 246.834 66.7136C246.655 66.918 246.434 67.0811 246.186 67.1918C245.938 67.3026 245.669 67.3582 245.398 67.355C244.641 67.355 244.101 66.9827 244.101 66.3942ZM243.335 63.7509H244.413C244.485 63.4206 244.671 63.1266 244.94 62.9219C245.208 62.7171 245.541 62.6151 245.878 62.634C246.765 62.634 247.257 63.0063 247.257 63.5227C247.257 64.0391 246.993 64.2673 246.178 64.4114C245.242 64.5796 243.035 64.6396 243.035 66.3942C243.119 66.8602 243.348 67.2875 243.69 67.6142C244.033 67.9409 244.47 68.1502 244.938 68.2117C245.407 68.2732 245.883 68.1838 246.298 67.9564C246.713 67.729 247.045 67.3754 247.245 66.9467H247.257V67.1857C247.257 67.534 247.257 67.7862 247.281 68.0864H248.431C248.369 67.669 248.337 67.2475 248.335 66.8254V64.1592C248.335 63.1985 248.12 61.7225 245.842 61.7225C245.247 61.6875 244.66 61.876 244.196 62.2511C243.733 62.6262 243.426 63.161 243.335 63.7509Z" fill="black"/>
<path d="M338.827 50.7808H339.893C339.87 50.4899 339.79 50.2065 339.656 49.947C339.523 49.6876 339.339 49.4573 339.116 49.2696C338.893 49.082 338.635 48.9406 338.356 48.8539C338.078 48.7671 337.785 48.7367 337.495 48.7644C336.403 48.7644 335.204 49.4237 335.204 50.5886C335.204 51.5506 336.031 52.1151 336.954 52.3432L337.819 52.5594C338.407 52.7035 338.923 52.8837 338.923 53.4121C338.923 54.1327 338.191 54.3489 337.579 54.3489C336.738 54.3489 336.247 54.0366 336.103 53.244H335.024C335.057 53.5423 335.148 53.8313 335.292 54.0943C335.436 54.3574 335.631 54.5893 335.865 54.7767C336.099 54.9641 336.368 55.1033 336.656 55.1863C336.944 55.2693 337.246 55.2945 337.543 55.2604C338.623 55.2604 340.001 54.6611 340.001 53.3401C340.001 52.3072 339.055 51.8629 338.119 51.6347L337.303 51.4293C336.762 51.2972 336.283 51.021 336.283 50.5406C336.283 50.0122 336.87 49.6759 337.459 49.6759C337.622 49.6583 337.786 49.6729 337.942 49.7189C338.099 49.7649 338.245 49.8415 338.372 49.9441C338.499 50.0468 338.605 50.1735 338.683 50.3171C338.761 50.4607 338.81 50.6182 338.827 50.7808ZM329.207 51.4425C329.237 50.9458 329.459 50.4804 329.827 50.1458C330.195 49.8112 330.679 49.6339 331.175 49.6519C331.413 49.6421 331.651 49.6816 331.873 49.768C332.095 49.8544 332.297 49.9858 332.465 50.1539C332.634 50.322 332.767 50.5232 332.854 50.745C332.942 50.9667 332.983 51.2042 332.975 51.4425H329.207ZM333.969 53.268H332.915C332.795 53.6231 332.557 53.9259 332.24 54.1251C331.923 54.3243 331.547 54.4076 331.175 54.3609C330.908 54.3637 330.644 54.312 330.397 54.2088C330.151 54.1056 329.928 53.9531 329.743 53.7607C329.558 53.5684 329.413 53.3401 329.319 53.09C329.225 52.8398 329.183 52.5731 329.195 52.306H334.065V52.1139C334.041 50.5178 333.358 48.7644 331.175 48.7644C330.353 48.8227 329.583 49.1918 329.022 49.7969C328.461 50.402 328.151 51.198 328.154 52.0236C328.157 52.8493 328.473 53.6429 329.039 54.2438C329.604 54.8448 330.376 55.2082 331.199 55.2604C331.822 55.312 332.443 55.1399 332.951 54.7748C333.458 54.4097 333.819 53.8755 333.969 53.268ZM327.204 53.22H326.113C326.003 53.5745 325.775 53.8808 325.467 54.0883C325.16 54.2958 324.791 54.3919 324.421 54.3609C323.851 54.2859 323.327 54.0057 322.947 53.5725C322.568 53.1393 322.358 52.5827 322.358 52.0064C322.358 51.4301 322.568 50.8735 322.947 50.4403C323.327 50.0071 323.851 49.7269 324.421 49.6519C324.782 49.6266 325.141 49.7228 325.441 49.9251C325.741 50.1275 325.965 50.4245 326.077 50.7688H327.156C327.029 50.1618 326.685 49.6225 326.187 49.2531C325.69 48.8836 325.074 48.7098 324.457 48.7644C323.609 48.7823 322.801 49.1323 322.207 49.7395C321.614 50.3467 321.281 51.1626 321.281 52.0124C321.281 52.8622 321.614 53.6781 322.207 54.2853C322.801 54.8924 323.609 55.2425 324.457 55.2604C325.085 55.3147 325.711 55.1372 326.217 54.7613C326.723 54.3854 327.074 53.8372 327.204 53.22ZM314.827 55.1163H315.904V52.0658C315.904 50.4445 316.709 49.6759 317.621 49.6759C318.46 49.6759 318.929 50.1082 318.929 51.2011V55.1163H320.006V51.093C320.044 50.7854 320.013 50.4732 319.915 50.1792C319.817 49.8852 319.654 49.6169 319.44 49.3937C319.225 49.1706 318.963 48.9983 318.673 48.8894C318.383 48.7805 318.073 48.7378 317.764 48.7644C317.358 48.7673 316.963 48.8941 316.631 49.1277C316.298 49.3613 316.045 49.6908 315.904 50.0722V48.9085H314.827V55.1163ZM308.605 51.4425C308.635 50.9458 308.858 50.4804 309.225 50.1458C309.593 49.8112 310.077 49.6339 310.574 49.6519C310.812 49.6421 311.049 49.6816 311.271 49.7679C311.493 49.8543 311.695 49.9856 311.864 50.1537C312.033 50.3218 312.166 50.5231 312.254 50.7448C312.341 50.9666 312.382 51.2041 312.374 51.4425H308.605ZM313.368 53.268H312.314C312.194 53.6232 311.956 53.926 311.639 54.1251C311.321 54.3243 310.945 54.4076 310.574 54.3609C310.307 54.3637 310.042 54.3119 309.796 54.2088C309.549 54.1056 309.327 53.9531 309.141 53.7607C308.956 53.5683 308.812 53.3401 308.718 53.09C308.623 52.8398 308.581 52.5731 308.594 52.306H313.463V52.1139C313.439 50.5178 312.757 48.7644 310.574 48.7644C309.751 48.8227 308.982 49.1918 308.421 49.7969C307.86 50.402 307.549 51.198 307.552 52.0236C307.555 52.8493 307.872 53.6429 308.437 54.2438C309.002 54.8448 309.775 55.2082 310.598 55.2604C311.221 55.3121 311.842 55.1399 312.349 54.7749C312.857 54.4098 313.218 53.8756 313.368 53.268ZM305.113 55.1163H306.191V48.9085H305.113V55.1163ZM306.286 46.5426H305.136V47.7423H306.286V46.5426ZM303.767 53.22H302.675C302.565 53.5745 302.338 53.8808 302.03 54.0883C301.723 54.2958 301.354 54.3919 300.984 54.3609C300.414 54.2859 299.89 54.0057 299.51 53.5725C299.13 53.1393 298.921 52.5827 298.921 52.0064C298.921 51.4301 299.13 50.8735 299.51 50.4403C299.89 50.0071 300.414 49.7269 300.984 49.6519C301.345 49.6266 301.704 49.7228 302.004 49.9251C302.304 50.1275 302.527 50.4245 302.639 50.7688H303.719C303.592 50.1618 303.247 49.6225 302.75 49.2531C302.253 48.8837 301.637 48.7098 301.02 48.7644C300.172 48.7823 299.364 49.1323 298.77 49.7395C298.176 50.3467 297.844 51.1626 297.844 52.0124C297.844 52.8622 298.176 53.6781 298.77 54.2853C299.364 54.8924 300.172 55.2425 301.02 55.2604C301.648 55.3147 302.274 55.1372 302.78 54.7613C303.286 54.3854 303.637 53.8372 303.767 53.22ZM291.777 52.4633H290.639C290.663 54.4209 292.077 55.3204 293.948 55.3204C295.485 55.3204 296.959 54.565 296.959 52.8116C296.959 50.9982 295.497 50.6859 294.068 50.2776C292.941 49.9521 292.101 49.6159 292.101 48.7391C292.101 47.6943 292.893 47.298 293.84 47.298C294.069 47.2717 294.301 47.2939 294.52 47.3633C294.74 47.4327 294.942 47.5476 295.114 47.7006C295.286 47.8536 295.424 48.0412 295.519 48.2512C295.614 48.4612 295.664 48.6888 295.665 48.9193H296.815C296.808 48.5478 296.722 48.1821 296.565 47.8457C296.408 47.5093 296.181 47.2098 295.901 46.9665C295.621 46.7232 295.292 46.5416 294.937 46.4334C294.582 46.3252 294.209 46.2928 293.84 46.3384C292.293 46.3384 290.927 47.1659 290.963 48.8232C290.999 50.4457 292.437 50.8661 293.852 51.2864C294.933 51.6107 295.821 51.7908 295.821 52.8477C295.821 53.8925 294.957 54.3609 293.948 54.3609C293.678 54.399 293.402 54.3783 293.14 54.3003C292.878 54.2223 292.636 54.0888 292.43 53.9088C292.224 53.7288 292.059 53.5066 291.946 53.2572C291.834 53.0078 291.776 52.737 291.777 52.4633ZM280.479 51.995C280.479 50.6487 281.174 49.6759 282.446 49.6759C283.79 49.6759 284.414 50.7808 284.414 51.995C284.414 53.22 283.79 54.3369 282.446 54.3369C281.138 54.3369 280.479 53.3401 280.479 51.995ZM282.23 48.7644C280.479 48.7644 279.4 50.0722 279.4 51.995C279.4 53.9165 280.479 55.2604 282.23 55.2604C282.683 55.2697 283.128 55.1434 283.509 54.8975C283.889 54.6516 284.188 54.2975 284.366 53.8805H284.378V55.1163H285.456V46.5426H284.378V50.1683H284.366C284.192 49.7468 283.895 49.3875 283.514 49.1371C283.133 48.8867 282.685 48.7569 282.23 48.7644ZM273.39 51.4425C273.419 50.9459 273.641 50.4806 274.009 50.1459C274.377 49.8113 274.86 49.634 275.357 49.6519C275.595 49.642 275.833 49.6814 276.055 49.7677C276.277 49.8541 276.479 49.9854 276.648 50.1535C276.817 50.3217 276.949 50.5229 277.037 50.7447C277.125 50.9665 277.166 51.2041 277.157 51.4425H273.39ZM278.152 53.268H277.097C276.978 53.6233 276.739 53.9262 276.422 54.1253C276.105 54.3245 275.728 54.4078 275.357 54.3609C275.09 54.3637 274.825 54.3119 274.579 54.2087C274.333 54.1054 274.11 53.953 273.925 53.7606C273.74 53.5682 273.596 53.3399 273.502 53.0898C273.407 52.8397 273.365 52.573 273.378 52.306H278.248V52.1139C278.224 50.5178 277.541 48.7644 275.357 48.7644C274.534 48.8227 273.765 49.1918 273.204 49.7969C272.643 50.402 272.332 51.198 272.335 52.0236C272.338 52.8493 272.655 53.6429 273.22 54.2438C273.786 54.8448 274.558 55.2082 275.381 55.2604C276.004 55.3121 276.625 55.1399 277.133 54.7748C277.64 54.4098 278.002 53.8756 278.152 53.268ZM269.776 55.1163H270.854V48.9085H269.776V55.1163ZM270.95 46.5426H269.8V47.7423H270.95V46.5426ZM266.906 55.1163H267.984V46.5426H266.906V55.1163ZM260.415 51.995C260.415 50.7808 261.039 49.6759 262.384 49.6759C263.655 49.6759 264.351 50.6487 264.351 51.995C264.351 53.3401 263.691 54.3369 262.384 54.3369C261.039 54.3369 260.415 53.22 260.415 51.995ZM262.6 48.7644C262.144 48.7569 261.697 48.8867 261.316 49.1371C260.935 49.3875 260.638 49.7468 260.463 50.1683H260.451V48.9085H259.373V57.5182H260.451V53.8805H260.463C260.642 54.2975 260.94 54.6516 261.321 54.8975C261.701 55.1434 262.147 55.2697 262.6 55.2604C264.351 55.2604 265.429 53.9165 265.429 51.995C265.429 50.0722 264.351 48.7644 262.6 48.7644ZM252.896 51.995C252.896 50.7808 253.52 49.6759 254.864 49.6759C256.136 49.6759 256.832 50.6487 256.832 51.995C256.832 53.3401 256.172 54.3369 254.864 54.3369C253.52 54.3369 252.896 53.22 252.896 51.995ZM255.08 48.7644C254.625 48.7569 254.177 48.8867 253.796 49.1371C253.415 49.3875 253.119 49.7468 252.944 50.1683H252.932V48.9085H251.854V57.5182H252.932V53.8805H252.944C253.122 54.2975 253.421 54.6516 253.802 54.8975C254.182 55.1434 254.627 55.2697 255.08 55.2604C256.832 55.2604 257.91 53.9165 257.91 51.995C257.91 50.0722 256.832 48.7644 255.08 48.7644ZM245.256 51.6707L246.683 47.5622H246.719L248.157 51.6707H245.256ZM243.972 55.1163L244.92 52.6063H248.493L249.429 55.1163H250.604L247.414 46.5426H245.987L242.797 55.1163H243.972Z" fill="black"/>
<path d="M308.914 35.2399V35.9376H308.062V36.8251H308.914V42.1454H309.968V36.8251H311.012V35.9376H309.968V35.2879C309.968 34.6394 310.292 34.4833 310.76 34.4833H311.156V33.5717H310.484C310.267 33.5623 310.05 33.5999 309.849 33.6817C309.648 33.7636 309.467 33.8879 309.318 34.0462C309.169 34.2044 309.056 34.393 308.986 34.599C308.916 34.8049 308.892 35.0235 308.914 35.2399ZM302.09 39.0469C302.144 38.6572 302.309 38.2911 302.565 37.9925C302.821 37.6939 303.157 37.4754 303.534 37.363C303.91 37.2507 304.311 37.2492 304.689 37.3588C305.066 37.4684 305.404 37.6844 305.662 37.9811C305.92 38.2778 306.088 38.6426 306.145 39.032C306.201 39.4214 306.145 39.8189 305.982 40.177C305.819 40.5352 305.557 40.8389 305.227 41.0518C304.896 41.2648 304.511 41.378 304.118 41.378C303.831 41.3632 303.549 41.2906 303.29 41.1644C303.031 41.0382 302.8 40.861 302.61 40.6435C302.421 40.4259 302.277 40.1725 302.188 39.8982C302.099 39.6239 302.065 39.3344 302.09 39.0469ZM304.118 42.2896C304.766 42.3179 305.408 42.1513 305.96 41.8113C306.513 41.4714 306.951 40.9736 307.218 40.3821C307.486 39.7905 307.57 39.1324 307.46 38.4924C307.351 37.8525 307.053 37.26 306.604 36.7914C306.155 36.3227 305.576 35.9994 304.942 35.863C304.308 35.7266 303.648 35.7833 303.047 36.026C302.445 36.2687 301.93 36.6861 301.568 37.2245C301.205 37.7629 301.012 38.3977 301.013 39.0469C300.987 39.4683 301.048 39.8904 301.194 40.2868C301.339 40.6832 301.564 41.0451 301.856 41.3498C302.148 41.6545 302.499 41.8953 302.889 42.0571C303.278 42.2188 303.697 42.298 304.118 42.2896ZM292.472 35.9376H291.322C292.185 38.0633 293.06 40.1891 293.923 42.3148L293.707 42.8552C293.527 43.2996 293.431 43.6358 292.832 43.6358H292.149V44.5474H292.988C293.347 44.5577 293.699 44.4442 293.985 44.2258C294.271 44.0075 294.474 43.6975 294.559 43.3476L297.364 35.9376H296.214L294.451 41.0778H294.439L292.472 35.9376ZM289.188 40.4052V36.8251H290.375V35.9376H289.188V34.0041L288.134 34.4845V35.9376H287.21V36.8251H288.134V40.4773C288.115 40.7074 288.147 40.9389 288.229 41.1548C288.311 41.3707 288.44 41.5656 288.606 41.7254C288.773 41.8852 288.973 42.0058 289.191 42.0785C289.41 42.1511 289.643 42.174 289.871 42.1454H290.411V41.2579H289.979C289.869 41.2642 289.758 41.246 289.655 41.2045C289.552 41.163 289.459 41.0992 289.384 41.0178C289.308 40.9364 289.251 40.8393 289.217 40.7334C289.184 40.6275 289.173 40.5155 289.188 40.4052ZM284.811 42.1454H285.889V35.9376H284.811V42.1454ZM285.985 33.5717H284.835V34.7715H285.985V33.5717ZM282.244 37.8099H283.311C283.288 37.5189 283.207 37.2354 283.074 36.9759C282.94 36.7165 282.756 36.4862 282.533 36.2985C282.31 36.1108 282.051 35.9695 281.773 35.8828C281.495 35.7961 281.202 35.7658 280.912 35.7935C279.82 35.7935 278.622 36.4528 278.622 37.6178C278.622 38.5786 279.448 39.143 280.372 39.3712L281.236 39.5886C281.824 39.7327 282.34 39.9128 282.34 40.4413C282.34 41.1618 281.609 41.378 280.996 41.378C280.156 41.378 279.664 41.0658 279.52 40.2731H278.442C278.474 40.5713 278.565 40.8602 278.709 41.1231C278.854 41.386 279.048 41.6178 279.282 41.8052C279.516 41.9926 279.785 42.1318 280.073 42.2149C280.361 42.2981 280.662 42.3234 280.96 42.2896C282.04 42.2896 283.418 41.6903 283.418 40.3692C283.418 39.3352 282.472 38.8908 281.537 38.6626L280.72 38.4585C280.18 38.3264 279.7 38.0501 279.7 37.5697C279.7 37.0413 280.288 36.705 280.876 36.705C281.038 36.6873 281.202 36.7018 281.359 36.7478C281.516 36.7938 281.662 36.8703 281.789 36.9729C281.916 37.0756 282.022 37.2024 282.1 37.346C282.178 37.4896 282.227 37.6473 282.244 37.8099ZM275.778 35.9376H274.7V42.1454H275.778V39.2151C275.778 37.4136 276.51 37.0894 277.229 36.9813C277.361 36.9619 277.493 36.9499 277.625 36.9452V35.9136C277.216 35.8705 276.806 35.9749 276.467 36.2081C276.128 36.4413 275.884 36.7879 275.778 37.1854V35.9376ZM268.359 38.4717C268.389 37.9751 268.611 37.5097 268.979 37.1751C269.346 36.8405 269.83 36.6631 270.327 36.681C270.565 36.6711 270.802 36.7106 271.024 36.7969C271.246 36.8832 271.448 37.0146 271.617 37.1827C271.786 37.3508 271.919 37.5521 272.007 37.7739C272.094 37.9957 272.135 38.2333 272.127 38.4717H268.359ZM273.121 40.2959H272.067C271.948 40.6515 271.709 40.9547 271.392 41.1541C271.075 41.3536 270.698 41.4369 270.327 41.39C270.06 41.3928 269.795 41.341 269.549 41.2378C269.303 41.1346 269.08 40.9821 268.895 40.7897C268.709 40.5973 268.565 40.3691 268.471 40.119C268.377 39.8689 268.335 39.6021 268.347 39.3352H273.217V39.143C273.193 37.5457 272.511 35.7935 270.327 35.7935C269.913 35.7915 269.503 35.8749 269.123 36.0384C268.743 36.202 268.4 36.4421 268.117 36.744C267.833 37.0458 267.615 37.4028 267.475 37.7929C267.336 38.1829 267.278 38.5975 267.305 39.0109C267.266 39.4318 267.316 39.8562 267.452 40.2564C267.588 40.6565 267.807 41.0234 268.095 41.3329C268.382 41.6425 268.732 41.8877 269.121 42.0525C269.509 42.2174 269.928 42.2982 270.351 42.2896C270.974 42.3412 271.595 42.1689 272.103 41.8036C272.61 41.4383 272.971 40.9038 273.121 40.2959ZM262.077 35.9376H260.901C261.681 38.0033 262.449 40.0798 263.228 42.1454H264.415C265.194 40.0798 265.962 38.0033 266.741 35.9376H265.566L263.84 41.0538H263.828C263.24 39.3472 262.665 37.643 262.077 35.9376ZM258.634 42.1454H259.713V35.9376H258.634V42.1454ZM259.809 33.5717H258.658V34.7715H259.809V33.5717ZM251.684 42.1454H252.762V39.095C252.762 37.4737 253.566 36.705 254.478 36.705C255.318 36.705 255.786 37.1374 255.786 38.2303V42.1454H256.864V38.1222C256.902 37.8146 256.871 37.5024 256.773 37.2084C256.675 36.9144 256.512 36.646 256.297 36.4229C256.083 36.1997 255.821 36.0274 255.531 35.9185C255.241 35.8096 254.931 35.7669 254.622 35.7935C254.216 35.7963 253.821 35.923 253.488 36.1566C253.156 36.3903 252.902 36.7198 252.762 37.1014V35.9376H251.684V42.1454ZM249.895 39.0962V33.5717H248.757V39.0962C248.784 39.387 248.75 39.6802 248.657 39.9572C248.565 40.2341 248.415 40.4886 248.219 40.7045C248.022 40.9204 247.783 41.0928 247.516 41.2108C247.25 41.3288 246.961 41.3897 246.669 41.3897C246.378 41.3897 246.089 41.3288 245.822 41.2108C245.556 41.0928 245.316 40.9204 245.12 40.7045C244.923 40.4886 244.774 40.2341 244.681 39.9572C244.589 39.6802 244.555 39.387 244.582 39.0962V33.5717H243.443V39.0962C243.44 39.5224 243.521 39.9451 243.682 40.3399C243.842 40.7347 244.08 41.0937 244.379 41.3963C244.679 41.6989 245.036 41.939 245.429 42.1029C245.822 42.2668 246.244 42.3512 246.669 42.3512C247.095 42.3512 247.517 42.2668 247.91 42.1029C248.303 41.939 248.659 41.6989 248.959 41.3963C249.259 41.0937 249.496 40.7347 249.657 40.3399C249.818 39.9451 249.899 39.5224 249.895 39.0962Z" fill="black"/>
<path d="M284.902 20.1258C284.902 18.7795 285.597 17.8068 286.87 17.8068C288.213 17.8068 288.837 18.9116 288.837 20.1258C288.837 21.3508 288.213 22.4677 286.87 22.4677C285.561 22.4677 284.902 21.4709 284.902 20.1258ZM286.654 16.8952C284.902 16.8952 283.823 18.2031 283.823 20.1258C283.823 22.0474 284.902 23.3913 286.654 23.3913C287.107 23.4004 287.552 23.274 287.932 23.0281C288.313 22.7822 288.611 22.4282 288.789 22.0113H288.801V23.2471H289.879V14.6734H288.801V18.2992H288.789C288.615 17.8778 288.318 17.5186 287.937 17.2682C287.557 17.0179 287.11 16.8879 286.654 16.8952ZM281.27 23.2471H282.348V14.6734H281.27V23.2471ZM274.918 19.5734C274.947 19.0767 275.17 18.6113 275.538 18.2767C275.905 17.9421 276.389 17.7648 276.886 17.7827C277.124 17.7729 277.361 17.8124 277.583 17.8988C277.806 17.9852 278.007 18.1165 278.176 18.2846C278.345 18.4527 278.478 18.6539 278.566 18.8757C278.653 19.0975 278.694 19.335 278.686 19.5734H274.918ZM279.679 21.3989H278.626C278.506 21.7539 278.268 22.0566 277.951 22.2558C277.633 22.4549 277.257 22.5383 276.886 22.4917C276.619 22.4946 276.354 22.4428 276.108 22.3396C275.862 22.2364 275.639 22.084 275.453 21.8916C275.268 21.6992 275.124 21.471 275.03 21.2208C274.935 20.9707 274.893 20.7039 274.906 20.4369H279.775V20.2447C279.751 18.6486 279.069 16.8952 276.886 16.8952C276.472 16.8932 276.062 16.9765 275.682 17.1399C275.302 17.3034 274.959 17.5436 274.676 17.8454C274.392 18.1473 274.174 18.5044 274.034 18.8945C273.895 19.2845 273.837 19.6992 273.864 20.1126C273.825 20.5335 273.875 20.958 274.011 21.3582C274.147 21.7584 274.366 22.1253 274.654 22.4349C274.941 22.7444 275.291 22.9896 275.68 23.1545C276.069 23.3193 276.488 23.4 276.91 23.3913C277.533 23.4429 278.153 23.2707 278.661 22.9056C279.169 22.5405 279.53 22.0063 279.679 21.3989ZM270.98 16.3428V17.0393H270.128V17.9269H270.98V23.2471H272.033V17.9269H273.076V17.0393H272.033V16.3908C272.033 15.7411 272.357 15.585 272.825 15.585H273.22V14.6734H272.549C272.332 14.6641 272.115 14.7017 271.914 14.7837C271.713 14.8657 271.532 14.9901 271.383 15.1485C271.234 15.307 271.121 15.4956 271.051 15.7017C270.982 15.9078 270.957 16.1264 270.98 16.3428ZM264.371 19.5734C264.401 19.0767 264.623 18.6113 264.991 18.2767C265.359 17.9421 265.843 17.7648 266.339 17.7827C266.577 17.7729 266.815 17.8124 267.037 17.8988C267.259 17.9852 267.461 18.1165 267.63 18.2846C267.799 18.4527 267.931 18.6539 268.019 18.8757C268.107 19.0975 268.148 19.335 268.14 19.5734H264.371ZM269.134 21.3989H268.08C267.96 21.754 267.721 22.0568 267.404 22.256C267.087 22.4552 266.711 22.5384 266.339 22.4917C266.072 22.4946 265.807 22.4428 265.561 22.3396C265.315 22.2364 265.092 22.084 264.907 21.8916C264.721 21.6992 264.577 21.471 264.483 21.2208C264.389 20.9707 264.347 20.7039 264.359 20.4369H269.229V20.2447C269.205 18.6486 268.522 16.8952 266.339 16.8952C265.925 16.8932 265.516 16.9765 265.135 17.1399C264.755 17.3034 264.413 17.5436 264.129 17.8454C263.846 18.1473 263.627 18.5044 263.488 18.8945C263.348 19.2845 263.29 19.6992 263.318 20.1126C263.279 20.5335 263.329 20.958 263.465 21.3582C263.601 21.7584 263.82 22.1253 264.107 22.4349C264.395 22.7444 264.744 22.9896 265.133 23.1545C265.522 23.3193 265.941 23.4 266.363 23.3913C266.986 23.4429 267.607 23.2708 268.115 22.9057C268.623 22.5406 268.984 22.0064 269.134 21.3989ZM260.919 23.2471H261.997V14.6734H260.919V23.2471ZM254.567 19.5734C254.596 19.0768 254.818 18.6114 255.186 18.2768C255.553 17.9422 256.037 17.7648 256.534 17.7827C256.772 17.7728 257.009 17.8123 257.231 17.8986C257.454 17.9849 257.655 18.1163 257.824 18.2844C257.994 18.4525 258.126 18.6538 258.214 18.8756C258.301 19.0974 258.342 19.335 258.334 19.5734H254.567ZM259.328 21.3989H258.274C258.155 21.7541 257.916 22.057 257.599 22.2562C257.281 22.4554 256.905 22.5386 256.534 22.4917C256.267 22.4945 256.002 22.4428 255.756 22.3395C255.51 22.2363 255.287 22.0838 255.102 21.8914C254.917 21.6991 254.772 21.4708 254.678 21.2207C254.584 20.9706 254.542 20.7039 254.555 20.4369H259.424V20.2447C259.4 18.6486 258.717 16.8952 256.534 16.8952C256.12 16.8933 255.71 16.9766 255.33 17.1402C254.95 17.3037 254.607 17.5438 254.324 17.8457C254.04 18.1475 253.822 18.5046 253.682 18.8946C253.543 19.2846 253.485 19.6992 253.512 20.1126C253.473 20.5335 253.523 20.9579 253.659 21.3581C253.795 21.7582 254.014 22.1251 254.302 22.4346C254.589 22.7442 254.939 22.9894 255.328 23.1542C255.716 23.3191 256.136 23.3999 256.558 23.3913C257.181 23.4429 257.802 23.2708 258.309 22.9057C258.817 22.5406 259.178 22.0064 259.328 21.3989ZM250.953 23.2471H252.031V17.0393H250.953V23.2471ZM252.127 14.6734H250.977V15.8732H252.127V14.6734ZM244.63 18.4205V15.633H246.394C247.39 15.633 247.99 16.0053 247.99 16.9673C247.99 17.9281 247.39 18.4205 246.394 18.4205H244.63ZM244.63 22.2876V19.38H246.731C246.935 19.3577 247.141 19.3787 247.337 19.4416C247.532 19.5045 247.712 19.608 247.865 19.7452C248.017 19.8824 248.14 20.0504 248.223 20.2381C248.307 20.4257 248.35 20.629 248.35 20.8345C248.35 21.04 248.307 21.2432 248.223 21.4308C248.139 21.6184 248.017 21.7862 247.864 21.9233C247.711 22.0604 247.531 22.1637 247.335 22.2265C247.14 22.2892 246.934 22.3101 246.729 22.2876H244.63ZM243.492 23.2471H246.538C248.362 23.2471 249.488 22.4197 249.488 20.8224C249.503 20.3407 249.334 19.8716 249.015 19.5102C248.697 19.1488 248.253 18.9224 247.774 18.8768V18.8648C248.169 18.7286 248.511 18.4727 248.754 18.1327C248.997 17.7926 249.128 17.3852 249.128 16.9673C249.133 16.6451 249.069 16.3256 248.94 16.03C248.812 15.7344 248.623 15.4694 248.385 15.2526C248.147 15.0358 247.865 14.872 247.559 14.7722C247.253 14.6723 246.93 14.6387 246.61 14.6734H243.492V23.2471Z" fill="black"/>
<path d="M303.37 6.60312C303.399 6.10632 303.621 5.64082 303.989 5.30622C304.357 4.97152 304.841 4.79433 305.338 4.81243C305.576 4.80263 305.813 4.84223 306.035 4.92863C306.257 5.01503 306.459 5.14632 306.628 5.31442C306.797 5.48252 306.929 5.68383 307.017 5.90553C307.104 6.12733 307.145 6.36482 307.137 6.60312H303.37ZM308.131 8.42732H307.077C306.958 8.78272 306.72 9.08592 306.403 9.28532C306.086 9.48472 305.709 9.56823 305.338 9.52143C305.071 9.52443 304.806 9.47272 304.56 9.36952C304.313 9.26642 304.091 9.11392 303.905 8.92152C303.72 8.72912 303.576 8.50083 303.481 8.25063C303.387 8.00043 303.345 7.73363 303.358 7.46663H308.227V7.27443C308.203 5.67713 307.521 3.92492 305.338 3.92492C304.924 3.92282 304.514 4.00612 304.134 4.16962C303.753 4.33302 303.411 4.57322 303.127 4.87502C302.844 5.17682 302.625 5.53392 302.486 5.92402C302.346 6.31412 302.288 6.72882 302.315 7.14232C302.276 7.56332 302.326 7.98783 302.462 8.38803C302.599 8.78833 302.818 9.15523 303.105 9.46473C303.393 9.77423 303.743 10.0194 304.132 10.1842C304.52 10.349 304.94 10.4297 305.362 10.421C305.985 10.4726 306.606 10.3003 307.113 9.93493C307.621 9.56963 307.982 9.03512 308.131 8.42732ZM299.78 10.2768H300.858V1.70312H299.78V10.2768ZM292.795 8.09233C292.757 8.39993 292.789 8.71212 292.887 9.00612C292.985 9.30012 293.147 9.56842 293.362 9.79162C293.577 10.0148 293.839 10.1871 294.128 10.2959C294.418 10.4048 294.729 10.4475 295.037 10.421C295.443 10.4178 295.839 10.291 296.171 10.0574C296.503 9.82382 296.757 9.49442 296.897 9.11312V10.2768H297.975V4.06903H296.897V7.11832C296.897 8.74082 296.093 9.50942 295.181 9.50942C294.34 9.50942 293.872 9.07712 293.872 7.98422V4.06903H292.795V8.09233ZM285.906 10.2768H286.983V7.22643C286.983 5.60513 287.788 4.83652 288.699 4.83652C289.539 4.83652 290.008 5.26882 290.008 6.36172V10.2768H291.085V6.25362C291.123 5.94602 291.092 5.63382 290.994 5.33982C290.895 5.04582 290.733 4.77743 290.518 4.55433C290.304 4.33113 290.042 4.15882 289.752 4.04992C289.462 3.94102 289.152 3.89832 288.843 3.92492C288.437 3.92792 288.042 4.05463 287.709 4.28823C287.377 4.52193 287.123 4.85142 286.983 5.23282V1.70312H285.906V10.2768ZM284.47 8.38053H283.378C283.268 8.73513 283.041 9.04142 282.733 9.24892C282.426 9.45632 282.057 9.55253 281.687 9.52143C281.394 9.51463 281.106 9.44722 280.84 9.32332C280.575 9.19952 280.337 9.02193 280.144 8.80193C279.95 8.58183 279.804 8.32393 279.714 8.04453C279.625 7.76513 279.594 7.47023 279.624 7.17833C279.593 6.88513 279.623 6.58862 279.711 6.30742C279.8 6.02622 279.946 5.76633 280.14 5.54423C280.333 5.32213 280.571 5.14243 280.837 5.01653C281.103 4.89053 281.393 4.82113 281.687 4.81243C282.048 4.78713 282.407 4.88332 282.707 5.08572C283.007 5.28812 283.23 5.58503 283.342 5.92933H284.422C284.295 5.32243 283.95 4.78313 283.453 4.41363C282.956 4.04423 282.34 3.87032 281.723 3.92492C281.295 3.90842 280.869 3.98182 280.471 4.14042C280.073 4.29902 279.713 4.53932 279.414 4.84592C279.115 5.15242 278.883 5.51842 278.734 5.92012C278.584 6.32192 278.521 6.75053 278.547 7.17833C278.521 7.60573 278.585 8.03372 278.734 8.43482C278.884 8.83592 279.116 9.20112 279.415 9.50682C279.714 9.81252 280.075 10.0518 280.472 10.2092C280.87 10.3667 281.296 10.4388 281.723 10.421C282.351 10.4752 282.977 10.2977 283.483 9.92183C283.989 9.54603 284.34 8.99773 284.47 8.38053ZM276.325 5.94132H277.391C277.368 5.65042 277.287 5.36693 277.154 5.10743C277.02 4.84793 276.837 4.61762 276.613 4.42992C276.39 4.24222 276.132 4.10093 275.853 4.01423C275.575 3.92753 275.282 3.89722 274.992 3.92492C273.9 3.92492 272.702 4.58423 272.702 5.74923C272.702 6.71003 273.529 7.27442 274.452 7.50262L275.316 7.72002C275.904 7.86412 276.421 8.04423 276.421 8.57273C276.421 9.29323 275.688 9.50942 275.076 9.50942C274.236 9.50942 273.745 9.19722 273.599 8.40452H272.522C272.555 8.70272 272.646 8.99162 272.79 9.25452C272.934 9.51742 273.129 9.74922 273.363 9.93662C273.597 10.124 273.865 10.2632 274.153 10.3463C274.441 10.4295 274.742 10.4548 275.04 10.421C276.121 10.421 277.498 9.82173 277.498 8.50063C277.498 7.46663 276.552 7.02223 275.616 6.79403L274.8 6.58992C274.26 6.45782 273.779 6.18152 273.779 5.70112C273.779 5.17272 274.368 4.83652 274.956 4.83652C275.118 4.81882 275.283 4.83343 275.439 4.87943C275.596 4.92543 275.742 5.00193 275.869 5.10463C275.996 5.20723 276.102 5.33393 276.18 5.47753C276.258 5.62113 276.307 5.77872 276.325 5.94132ZM265.97 10.2768H267.047V7.22643C267.047 5.60513 267.852 4.83652 268.763 4.83652C269.604 4.83652 270.072 5.26882 270.072 6.36172V10.2768H271.149V6.25362C271.187 5.94602 271.156 5.63382 271.058 5.33982C270.96 5.04582 270.797 4.77743 270.582 4.55433C270.368 4.33113 270.106 4.15882 269.816 4.04992C269.526 3.94102 269.216 3.89832 268.907 3.92492C268.501 3.92802 268.106 4.05482 267.773 4.28852C267.441 4.52212 267.188 4.85152 267.047 5.23282V1.70312H265.97V10.2768ZM264.535 8.38053H263.443C263.333 8.73513 263.106 9.04153 262.798 9.24903C262.491 9.45653 262.122 9.55263 261.753 9.52143C261.46 9.51463 261.171 9.44722 260.906 9.32332C260.64 9.19952 260.403 9.02193 260.209 8.80193C260.015 8.58183 259.869 8.32393 259.78 8.04453C259.69 7.76513 259.66 7.47023 259.689 7.17833C259.658 6.88513 259.688 6.58862 259.777 6.30742C259.865 6.02622 260.011 5.76633 260.205 5.54423C260.399 5.32213 260.636 5.14243 260.902 5.01653C261.169 4.89053 261.458 4.82113 261.753 4.81243C262.113 4.78733 262.472 4.88362 262.772 5.08592C263.072 5.28832 263.296 5.58513 263.408 5.92933H264.487C264.36 5.32243 264.016 4.78313 263.518 4.41363C263.021 4.04423 262.405 3.87032 261.788 3.92492C261.361 3.90832 260.934 3.98173 260.536 4.14033C260.138 4.29893 259.778 4.53923 259.479 4.84583C259.18 5.15233 258.948 5.51822 258.798 5.92002C258.649 6.32182 258.585 6.75043 258.611 7.17833C258.585 7.60573 258.649 8.03382 258.799 8.43502C258.948 8.83612 259.18 9.20133 259.48 9.50693C259.779 9.81263 260.14 10.0519 260.537 10.2093C260.935 10.3668 261.361 10.4389 261.788 10.421C262.416 10.4752 263.042 10.2977 263.548 9.92183C264.054 9.54603 264.405 8.99773 264.535 8.38053ZM252.376 7.17833C252.335 6.88743 252.356 6.59093 252.439 6.30893C252.522 6.02693 252.664 5.76602 252.856 5.54392C253.049 5.32182 253.286 5.14372 253.553 5.02172C253.82 4.89962 254.111 4.83642 254.404 4.83642C254.698 4.83642 254.988 4.89962 255.255 5.02172C255.522 5.14372 255.76 5.32182 255.952 5.54392C256.144 5.76602 256.287 6.02693 256.369 6.30893C256.452 6.59093 256.473 6.88743 256.432 7.17833C256.472 7.46853 256.45 7.76393 256.366 8.04473C256.283 8.32543 256.14 8.58503 255.948 8.80593C255.756 9.02683 255.518 9.20392 255.252 9.32522C254.986 9.44662 254.697 9.50942 254.404 9.50942C254.112 9.50942 253.822 9.44662 253.556 9.32522C253.29 9.20392 253.053 9.02683 252.86 8.80593C252.668 8.58503 252.526 8.32543 252.442 8.04473C252.359 7.76393 252.336 7.46853 252.376 7.17833ZM254.404 10.421C254.825 10.4294 255.244 10.3503 255.633 10.1886C256.023 10.0268 256.375 9.78602 256.667 9.48142C256.958 9.17672 257.184 8.81473 257.329 8.41833C257.474 8.02203 257.536 7.59973 257.51 7.17833C257.529 6.75813 257.463 6.33842 257.315 5.94462C257.168 5.55072 256.942 5.19093 256.652 4.88683C256.361 4.58283 256.013 4.34072 255.626 4.17542C255.24 4.01002 254.824 3.92483 254.404 3.92483C253.984 3.92483 253.568 4.01002 253.182 4.17542C252.796 4.34072 252.447 4.58283 252.157 4.88683C251.866 5.19093 251.641 5.55072 251.493 5.94462C251.345 6.33842 251.279 6.75813 251.298 7.17833C251.272 7.59963 251.334 8.02183 251.479 8.41813C251.624 8.81443 251.849 9.17633 252.141 9.48103C252.433 9.78573 252.785 10.0265 253.174 10.1883C253.563 10.3501 253.982 10.4293 254.404 10.421ZM248.758 1.70312V5.49822H244.63V1.70312H243.492V10.2768H244.63V6.45782H248.758V10.2768H249.896V1.70312H248.758Z" fill="black"/>
</g>
</svg>